<?xml version="1.0" encoding="UTF-8" standalone="no"?><!DOCTYPE svg PUBLIC "-//W3C//DTD SVG 1.1//EN" "http://www.w3.org/Graphics/SVG/1.1/DTD/svg11.dtd"><svg width="100%" height="100%" viewBox="0 0 12 12" version="1.1" xmlns="http://www.w3.org/2000/svg" xmlns:xlink="http://www.w3.org/1999/xlink" xml:space="preserve" xmlns:serif="http://www.serif.com/" style="fill-rule:evenodd;clip-rule:evenodd;stroke-linejoin:round;stroke-miterlimit:2;"><g id="Originals"><circle cx="6" cy="6" r="6" style="fill:url(#_Linear1);"/><g id="Pause-Sign" serif:id="Pause Sign"><path d="M5.278,3.634c0,-0.078 -0.086,-0.141 -0.192,-0.141l-1.178,0c-0.106,0 -0.192,0.063 -0.192,0.141c0,0 -0.119,0.801 -0.119,2.366c0,1.565 0.119,2.366 0.119,2.366c0,0.078 0.086,0.141 0.192,0.141l1.178,0c0.106,0 0.192,-0.063 0.192,-0.141c0,0 -0.08,-0.804 -0.08,-2.366c0,-1.562 0.08,-2.366 0.08,-2.366Z" style="fill:#ebebeb;"/><path d="M6.712,3.634c0,-0.078 0.086,-0.141 0.192,-0.141l1.179,0c0.105,0 0.191,0.063 0.191,0.141c0,0 0.119,0.801 0.119,2.366c0,1.565 -0.119,2.366 -0.119,2.366c0,0.078 -0.086,0.141 -0.191,0.141l-1.179,0c-0.106,0 -0.192,-0.063 -0.192,-0.141c0,0 0.081,-0.804 0.081,-2.366c0,-1.562 -0.081,-2.366 -0.081,-2.366Z" style="fill:#ebebeb;"/></g></g><defs><linearGradient id="_Linear1" x1="0" y1="0" x2="1" y2="0" gradientUnits="userSpaceOnUse" gradientTransform="matrix(7.34788e-16,12,-12,7.34788e-16,6,0)"><stop offset="0" style="stop-color:#9600ff;stop-opacity:1"/><stop offset="1" style="stop-color:#ff00ad;stop-opacity:1"/></linearGradient></defs></svg>