<?xml version="1.0" encoding="UTF-8" standalone="no"?><!DOCTYPE svg PUBLIC "-//W3C//DTD SVG 1.1//EN" "http://www.w3.org/Graphics/SVG/1.1/DTD/svg11.dtd"><svg width="100%" height="100%" viewBox="0 0 12 12" version="1.1" xmlns="http://www.w3.org/2000/svg" xmlns:xlink="http://www.w3.org/1999/xlink" xml:space="preserve" xmlns:serif="http://www.serif.com/" style="fill-rule:evenodd;clip-rule:evenodd;stroke-linejoin:round;stroke-miterlimit:2;"><g id="Originals"><circle cx="6" cy="6" r="6" style="fill:url(#_Linear1);"/><path id="Play-Sign" serif:id="Play Sign" d="M8.388,5.811c0.056,0.044 0.089,0.11 0.092,0.181c0.003,0.071 -0.026,0.139 -0.078,0.187c-0.314,0.272 -0.968,0.803 -1.902,1.37c-0.853,0.517 -1.547,0.81 -1.906,0.945c-0.067,0.023 -0.14,0.015 -0.2,-0.02c-0.061,-0.036 -0.103,-0.096 -0.116,-0.165c-0.067,-0.416 -0.179,-1.267 -0.179,-2.321c0,-1.033 0.107,-1.871 0.175,-2.296c0.013,-0.073 0.059,-0.136 0.125,-0.171c0.065,-0.035 0.142,-0.037 0.21,-0.008c0.36,0.167 1.04,0.502 1.891,1.019c0.902,0.547 1.564,1.031 1.888,1.279Z" style="fill:#ebebeb;"/></g><defs><linearGradient id="_Linear1" x1="0" y1="0" x2="1" y2="0" gradientUnits="userSpaceOnUse" gradientTransform="matrix(7.34788e-16,12,-12,7.34788e-16,6,0)"><stop offset="0" style="stop-color:#9600ff;stop-opacity:1"/><stop offset="1" style="stop-color:#ff00ad;stop-opacity:1"/></linearGradient></defs></svg>