<?xml version="1.0" standalone="no"?>
<!DOCTYPE svg PUBLIC "-//W3C//DTD SVG 20010904//EN"
 "http://www.w3.org/TR/2001/REC-SVG-20010904/DTD/svg10.dtd">
<svg version="1.0" xmlns="http://www.w3.org/2000/svg"
 width="119.000000pt" height="119.000000pt" viewBox="0 0 119.000000 119.000000"
 preserveAspectRatio="xMidYMid meet">
<metadata>
Created by potrace 1.11, written by Peter Selinger 2001-2013
</metadata>
<g transform="translate(0.000000,119.000000) scale(0.100000,-0.100000)"
fill="#000000" stroke="none">
<path d="M98 1162 l-58 -3 0 -97 c1 -80 4 -101 19 -119 11 -13 27 -23 36 -23
9 0 13 -5 10 -10 -4 -6 -10 -8 -15 -5 -14 9 -21 -28 -20 -110 3 -166 0 -236
-9 -230 -5 3 -12 1 -16 -5 -4 -6 7 -10 25 -10 37 0 37 -21 -1 -30 -23 -6 -24
-10 -27 -100 -2 -52 -7 -96 -12 -98 -14 -5 -12 -30 1 -34 7 -2 12 -40 13 -103
l1 -100 30 0 c24 -1 31 -5 34 -25 1 -14 8 -28 15 -32 6 -4 71 -8 144 -8 151 0
135 -15 132 119 -1 40 -7 83 -13 94 -9 15 -9 21 0 24 9 3 13 33 13 99 0 92 1
94 25 100 34 8 32 34 -2 34 -24 1 -25 2 -10 11 13 8 17 23 17 67 1 47 3 54 12
38 6 -11 12 -30 14 -43 1 -12 25 -54 52 -92 28 -38 48 -72 45 -75 -8 -7 64
-113 95 -141 12 -11 46 -54 76 -95 29 -41 58 -74 64 -73 6 2 20 -12 31 -31
l21 -33 153 -2 154 -2 -3 87 c-1 47 -6 89 -11 93 -13 8 -10 121 3 146 6 11 10
49 9 85 -1 46 3 68 13 75 13 10 15 54 12 255 0 22 -6 33 -22 40 l-23 9 23 0
c19 1 22 6 22 41 0 27 -4 40 -14 40 -10 0 -13 22 -12 101 1 93 0 102 -19 109
-11 4 -26 5 -32 3 -13 -5 -17 7 -14 40 2 12 -5 17 -26 18 -33 2 -137 2 -210 0
l-53 -1 0 -104 c0 -57 4 -106 9 -108 20 -7 16 -78 -4 -78 -8 0 -15 -5 -15 -10
0 -6 3 -9 8 -9 25 4 31 -2 22 -25 -5 -13 -6 -26 -3 -30 3 -3 6 -47 7 -98 1
-51 5 -99 10 -106 5 -8 4 -18 -2 -24 -6 -6 -23 9 -48 46 -22 31 -65 93 -96
138 -32 45 -58 84 -58 87 0 4 28 6 62 7 34 0 63 4 65 10 2 5 -27 8 -69 6 -64
-2 -76 0 -102 21 l-29 24 57 -1 c32 -1 63 2 69 6 7 4 -19 8 -58 8 -39 0 -77 6
-85 13 -8 7 -38 45 -65 86 -28 40 -57 76 -65 79 -8 3 -26 18 -40 33 -23 26
-31 28 -115 31 -50 2 -116 2 -147 0z"/>
<path d="M18 863 c7 -3 16 -2 19 1 4 3 -2 6 -13 5 -11 0 -14 -3 -6 -6z"/>
</g>
</svg>
